<svg xmlns="http://www.w3.org/2000/svg" xmlns:xlink="http://www.w3.org/1999/xlink" viewBox="0 0 689.62 306.67"><defs><style>.cls-1{fill:#ededed;}.cls-11,.cls-12,.cls-13,.cls-2,.cls-21,.cls-25,.cls-39{stroke:#000;stroke-miterlimit:10;}.cls-2,.cls-25,.cls-39{stroke-width:10px;}.cls-3,.cls-9{fill:#fff;}.cls-4{fill:#ccc;}.cls-5{fill:none;}.cls-6{fill:url(#linear-gradient);}.cls-7{fill:#141414;}.cls-8{fill:url(#linear-gradient-2);}.cls-9{opacity:0.16;isolation:isolate;}.cls-10{fill:url(#linear-gradient-3);}.cls-11,.cls-13,.cls-21{stroke-width:5px;}.cls-11{fill:url(#linear-gradient-4);}.cls-12{stroke-width:6px;fill:url(#linear-gradient-5);}.cls-13{fill:url(#linear-gradient-6);}.cls-14{fill:url(#linear-gradient-7);}.cls-15{fill:url(#linear-gradient-8);}.cls-16{fill:url(#linear-gradient-9);}.cls-17{fill:url(#linear-gradient-10);}.cls-18{fill:url(#linear-gradient-11);}.cls-19{fill:#b3b3b3;}.cls-20{fill:url(#linear-gradient-12);}.cls-22{fill:url(#linear-gradient-13);}.cls-23{fill:url(#linear-gradient-14);}.cls-24{fill:url(#linear-gradient-15);}.cls-25{fill:url(#radial-gradient);}.cls-26{fill:#1a1a1a;}.cls-27{fill:url(#radial-gradient-2);}.cls-28{fill:gray;}.cls-29{fill:url(#radial-gradient-3);}.cls-30{fill:url(#linear-gradient-16);}.cls-31{fill:url(#radial-gradient-4);}.cls-32{fill:#999;}.cls-33{fill:url(#radial-gradient-5);}.cls-34{fill:url(#radial-gradient-6);}.cls-35{fill:url(#radial-gradient-7);}.cls-36{fill:url(#radial-gradient-8);}.cls-37{fill:url(#radial-gradient-9);}.cls-38{fill:url(#linear-gradient-17);}.cls-39{fill:url(#radial-gradient-10);}.cls-40{fill:url(#radial-gradient-11);}.cls-41{fill:url(#radial-gradient-12);}.cls-42{fill:url(#linear-gradient-18);}.cls-43{fill:url(#radial-gradient-13);}.cls-44{fill:url(#radial-gradient-14);}.cls-45{fill:url(#radial-gradient-15);}.cls-46{fill:url(#radial-gradient-16);}.cls-47{fill:url(#radial-gradient-17);}.cls-48{fill:url(#radial-gradient-18);}</style><linearGradient id="linear-gradient" x1="326.62" y1="61.06" x2="326.62" y2="71.77" gradientTransform="matrix(1, 0, 0, -1, 0, 308)" gradientUnits="userSpaceOnUse"><stop offset="0" stop-color="gray"/><stop offset="0.06" stop-color="#8d8d8d"/><stop offset="0.17" stop-color="#aeaeae"/><stop offset="0.25" stop-color="#ccc"/><stop offset="0.27" stop-color="#d5d5d5"/><stop offset="0.3" stop-color="#e6e6e6"/><stop offset="0.5" stop-color="gray"/><stop offset="0.54" stop-color="#878787"/><stop offset="0.6" stop-color="#999"/><stop offset="0.67" stop-color="#b7b7b7"/><stop offset="0.74" stop-color="#e0e0e0"/><stop offset="0.75" stop-color="#e6e6e6"/><stop offset="0.75" stop-color="#e4e4e4"/><stop offset="0.87" stop-color="#aeaeae"/><stop offset="0.95" stop-color="#8d8d8d"/><stop offset="1" stop-color="gray"/></linearGradient><linearGradient id="linear-gradient-2" x1="30.7" y1="143.6" x2="46.37" y2="143.6" gradientTransform="matrix(1, 0, 0, -1, 0, 308)" gradientUnits="userSpaceOnUse"><stop offset="0" stop-color="#f7931e"/><stop offset="0.15" stop-color="#fac320"/><stop offset="0.27" stop-color="#fcee21"/><stop offset="0.39" stop-color="#f9be1f"/><stop offset="0.49" stop-color="#f7931e"/><stop offset="0.75" stop-color="#fcee21"/><stop offset="0.99" stop-color="#f7931e"/></linearGradient><linearGradient id="linear-gradient-3" x1="625.41" y1="116.81" x2="645.49" y2="116.81" gradientTransform="matrix(1, 0, 0, -1, 0, 308)" gradientUnits="userSpaceOnUse"><stop offset="0" stop-color="#961a23"/><stop offset="0.17" stop-color="#c60a0d"/><stop offset="0.27" stop-color="#e30000"/><stop offset="0.49" stop-color="#b3242a"/><stop offset="0.75" stop-color="#e30000"/><stop offset="0.99" stop-color="#b3242a"/></linearGradient><linearGradient id="linear-gradient-4" x1="388.18" y1="197.71" x2="472.03" y2="281.55" gradientTransform="matrix(1, 0, 0, -1, 0, 308)" gradientUnits="userSpaceOnUse"><stop offset="0" stop-color="#2b2932"/><stop offset="0.22" stop-color="#302f3a"/><stop offset="0.54" stop-color="#3e3e4d"/><stop offset="0.8" stop-color="#312f3a"/><stop offset="1" stop-color="#2b2932"/></linearGradient><linearGradient id="linear-gradient-5" x1="253.36" y1="184.86" x2="346.19" y2="277.69" xlink:href="#linear-gradient-4"/><linearGradient id="linear-gradient-6" x1="524.31" y1="197.6" x2="607.32" y2="280.61" xlink:href="#linear-gradient-4"/><linearGradient id="linear-gradient-7" x1="64.65" y1="115.86" x2="144.27" y2="195.46" xlink:href="#linear-gradient"/><linearGradient id="linear-gradient-8" x1="188.78" y1="149.4" x2="203.73" y2="164.35" xlink:href="#linear-gradient"/><linearGradient id="linear-gradient-9" x1="240.24" y1="129.94" x2="295.46" y2="185.18" xlink:href="#linear-gradient"/><linearGradient id="linear-gradient-10" x1="392.03" y1="135.36" x2="436.43" y2="179.76" xlink:href="#linear-gradient"/><linearGradient id="linear-gradient-11" x1="537.05" y1="122.24" x2="612" y2="197.19" xlink:href="#linear-gradient"/><linearGradient id="linear-gradient-12" x1="667.56" y1="123.87" x2="667.56" y2="230.88" gradientTransform="matrix(1, 0, 0, -1, 0, 308)" gradientUnits="userSpaceOnUse"><stop offset="0" stop-color="#4d4d4d"/><stop offset="0.11" stop-color="#656565"/><stop offset="0.22" stop-color="#797979"/><stop offset="0.3" stop-color="gray"/><stop offset="0.36" stop-color="#878787"/><stop offset="0.45" stop-color="#999"/><stop offset="0.55" stop-color="#b7b7b7"/><stop offset="0.66" stop-color="#e0e0e0"/><stop offset="0.67" stop-color="#e6e6e6"/><stop offset="0.73" stop-color="#e0e0e0"/><stop offset="0.8" stop-color="#cfcfcf"/><stop offset="0.88" stop-color="#b4b4b4"/><stop offset="0.97" stop-color="#8e8e8e"/><stop offset="1" stop-color="gray"/></linearGradient><linearGradient id="linear-gradient-13" x1="218.74" y1="209.31" x2="240.1" y2="209.31" gradientTransform="matrix(1, 0, 0, -1, 0, 308)" gradientUnits="userSpaceOnUse"><stop offset="0" stop-color="#e6e6e6"/><stop offset="0.58" stop-color="#d3d3d3"/><stop offset="0.99" stop-color="#ccc"/></linearGradient><linearGradient id="linear-gradient-14" x1="221.68" y1="208.87" x2="236.17" y2="208.87" gradientTransform="matrix(1, 0, 0, -1, 0, 308)" gradientUnits="userSpaceOnUse"><stop offset="0.01" stop-color="#fff"/><stop offset="0.07" stop-color="#f5f5f5"/><stop offset="0.17" stop-color="#dbdbdb"/><stop offset="0.26" stop-color="#bfbfbf"/><stop offset="0.28" stop-color="#ccc"/><stop offset="0.33" stop-color="#e3e3e3"/><stop offset="0.38" stop-color="#f3f3f3"/><stop offset="0.43" stop-color="#fcfcfc"/><stop offset="0.51" stop-color="#fff"/><stop offset="0.57" stop-color="#fafafa"/><stop offset="0.64" stop-color="#ededed"/><stop offset="0.71" stop-color="#d7d7d7"/><stop offset="0.77" stop-color="#bfbfbf"/><stop offset="0.78" stop-color="#c8c8c8"/><stop offset="0.83" stop-color="#e0e0e0"/><stop offset="0.88" stop-color="#f2f2f2"/><stop offset="0.93" stop-color="#fcfcfc"/><stop offset="1" stop-color="#fff"/></linearGradient><linearGradient id="linear-gradient-15" x1="87.75" y1="48.91" x2="128.72" y2="89.88" gradientTransform="matrix(1, 0, 0, -1, 0, 308)" gradientUnits="userSpaceOnUse"><stop offset="0" stop-color="#333"/><stop offset="0.31" stop-color="gray"/><stop offset="0.59" stop-color="#333"/><stop offset="1" stop-color="gray"/></linearGradient><radialGradient id="radial-gradient" cx="108.28" cy="69.41" r="63.08" gradientTransform="matrix(1, 0, 0, -1, 0, 308)" gradientUnits="userSpaceOnUse"><stop offset="0" stop-color="#4d4d4d"/><stop offset="0.31" stop-color="#393939"/><stop offset="0.94" stop-color="#050505"/><stop offset="1"/></radialGradient><radialGradient id="radial-gradient-2" cx="108.29" cy="69.42" r="45.46" gradientTransform="matrix(1, 0, 0, -1, 0, 308)" gradientUnits="userSpaceOnUse"><stop offset="0.43" stop-color="#b3b3b3"/><stop offset="1" stop-color="#333"/></radialGradient><radialGradient id="radial-gradient-3" cx="108.29" cy="72.5" r="47.53" gradientTransform="matrix(1, 0, 0, -1, 0, 308)" gradientUnits="userSpaceOnUse"><stop offset="0.01" stop-color="#4d4d4d"/><stop offset="0.17" stop-color="#505050"/><stop offset="0.27" stop-color="#585858"/><stop offset="0.36" stop-color="#676767"/><stop offset="0.44" stop-color="#7c7c7c"/><stop offset="0.51" stop-color="#979797"/><stop offset="0.57" stop-color="#b3b3b3"/><stop offset="1" stop-color="#4d4d4d"/></radialGradient><linearGradient id="linear-gradient-16" x1="73.08" y1="34.19" x2="143.53" y2="104.64" gradientTransform="matrix(1, 0, 0, -1, 0, 308)" gradientUnits="userSpaceOnUse"><stop offset="0.01" stop-color="#ccc"/><stop offset="0.07" stop-color="#c7c7c7"/><stop offset="0.14" stop-color="#b7b7b7"/><stop offset="0.23" stop-color="#9e9e9e"/><stop offset="0.24" stop-color="#999"/><stop offset="0.29" stop-color="#a4a4a4"/><stop offset="0.42" stop-color="#c1c1c1"/><stop offset="0.5" stop-color="#ccc"/><stop offset="0.63" stop-color="#b5b5b5"/><stop offset="0.76" stop-color="#999"/><stop offset="0.91" stop-color="#bdbdbd"/><stop offset="1" stop-color="#ccc"/></linearGradient><radialGradient id="radial-gradient-4" cx="108.29" cy="73.24" r="44.96" gradientTransform="matrix(1, 0, 0, -1, 0, 308)" gradientUnits="userSpaceOnUse"><stop offset="0.01" stop-color="#333"/><stop offset="0.1" stop-color="#515151"/><stop offset="0.22" stop-color="#707070"/><stop offset="0.33" stop-color="#878787"/><stop offset="0.44" stop-color="#949494"/><stop offset="0.54" stop-color="#999"/><stop offset="0.63" stop-color="#919191"/><stop offset="0.78" stop-color="#7b7b7b"/><stop offset="0.96" stop-color="#575757"/><stop offset="1" stop-color="#4d4d4d"/></radialGradient><radialGradient id="radial-gradient-5" cx="108.28" cy="79.88" r="1.79" gradientTransform="matrix(1, 0, 0, -1, 0, 308)" gradientUnits="userSpaceOnUse"><stop offset="0" stop-color="#ccc"/><stop offset="0.18" stop-color="#b7b7b7"/><stop offset="0.39" stop-color="#a6a6a6"/><stop offset="0.63" stop-color="#9c9c9c"/><stop offset="0.92" stop-color="#999"/></radialGradient><radialGradient id="radial-gradient-6" cx="114.44" cy="60.95" r="1.79" xlink:href="#radial-gradient-5"/><radialGradient id="radial-gradient-7" cx="102.13" cy="60.95" r="1.79" xlink:href="#radial-gradient-5"/><radialGradient id="radial-gradient-8" cx="98.33" cy="72.65" r="1.79" xlink:href="#radial-gradient-5"/><radialGradient id="radial-gradient-9" cx="118.24" cy="72.65" r="1.79" xlink:href="#radial-gradient-5"/><linearGradient id="linear-gradient-17" x1="524.94" y1="48.91" x2="565.9" y2="89.88" xlink:href="#linear-gradient-15"/><radialGradient id="radial-gradient-10" cx="545.46" cy="69.41" r="63.08" xlink:href="#radial-gradient"/><radialGradient id="radial-gradient-11" cx="545.45" cy="69.42" r="45.48" xlink:href="#radial-gradient-2"/><radialGradient id="radial-gradient-12" cx="545.47" cy="72.5" r="47.53" xlink:href="#radial-gradient-3"/><linearGradient id="linear-gradient-18" x1="510.22" y1="34.18" x2="580.71" y2="104.66" xlink:href="#linear-gradient-16"/><radialGradient id="radial-gradient-13" cx="545.48" cy="73.24" r="44.96" xlink:href="#radial-gradient-4"/><radialGradient id="radial-gradient-14" cx="545.47" cy="79.88" r="1.79" xlink:href="#radial-gradient-5"/><radialGradient id="radial-gradient-15" cx="551.62" cy="60.95" r="1.79" xlink:href="#radial-gradient-5"/><radialGradient id="radial-gradient-16" cx="539.32" cy="60.95" r="1.79" xlink:href="#radial-gradient-5"/><radialGradient id="radial-gradient-17" cx="535.52" cy="72.65" r="1.79" xlink:href="#radial-gradient-5"/><radialGradient id="radial-gradient-18" cx="555.43" cy="72.65" r="1.79" xlink:href="#radial-gradient-5"/></defs><g id="Layer_2" data-name="Layer 2"><g id="Layer_1-2" data-name="Layer 1"><path d="M31,232.32l21.68,9.27,16.71,39.3,38.06,9.73,37.31-12L161.93,257a74.25,74.25,0,0,0,21.43-7.06c10.39-5.48,10.39-8.35,10.39-8.35v-32.2L165.84,171,138,154,83.2,158.36,34,171,23.46,222.31Z"/><path d="M623.84,218.21a38.83,38.83,0,0,1-8.36,16.06c-6.53,7.32-23,7.32-23,7.32l2.8,19.89-49.13,31.61-34.61-15.58-22.39-28-15-5.87H455.89l9.86-33.19L477.3,173.9,514.13,152l58.37-4.31,43,14.49Z"/><path class="cls-1" d="M656.2,202V121L630.09,14s4.7-1.31,3.13-3.66S606.58,5.1,580.46,5.1H426.37s-107.34,0-140,6.79S254.53,25,254.53,25L206,108.57s-93.5,5.22-137.9,12-40.21,17.72-40.21,17.72-10.19,2.35-10.19,5.49v44.66a18.26,18.26,0,0,0,6,13.06H10.07L6,205.65l9.34,23.8L31,232.32s14.63-52.5,30.56-61.38,72.08-4.86,84.36-2.87c9.43,1.52,32.85,47.09,43.21,68.16H463.67a141.87,141.87,0,0,1,6.84-14.88c12-22.58,32.22-52.34,43.62-54.59,18.54-3.65,50.66-3.13,68.42,0,9.23,1.63,22.82,20.27,31.87,37.61A181.52,181.52,0,0,1,627,235.29l30.26-3a31.23,31.23,0,0,0,8.88-11,58.17,58.17,0,0,0,4.18-14.63Z"/><path class="cls-2" d="M463.74,236.33H189v-.05c-9.83-20-33.7-66.59-43.15-68.12-12.58-2-68.46-6-84.29,2.87-8.21,4.57-16.06,21-21.21,34-5.58,14.07-9.27,27.22-9.3,27.35v.09l-15.86-2.93h0L5.84,205.63,10,201.4H23.39a18.41,18.41,0,0,1-5.84-13V143.78c0-3,9-5.29,10.16-5.56A4.33,4.33,0,0,1,28.4,135c1.46-2.49,4.72-4.86,9.72-7,6.92-3,17-5.53,29.91-7.51,43.48-6.65,135.19-11.86,137.86-12L254.43,25c0-.56.47-6.58,31.94-13.13C318.65,5.08,425.3,5,426.37,5H580.46C607,5,631.72,7.9,633.3,10.27a1.55,1.55,0,0,1,.24,1.51c-.5,1.34-2.83,2.11-3.34,2.27l26.1,107v81l14.12,4.7v.08a58.93,58.93,0,0,1-4.18,14.66,31.71,31.71,0,0,1-8.91,11h0l-30.34,3v-.08a182.44,182.44,0,0,0-12.56-30.9c-8.84-17-22.57-35.93-31.79-37.56-17.07-3-49.36-3.76-68.39,0-5.13,1-12.57,7.8-21.52,19.63a274.16,274.16,0,0,0-22,34.9,143.94,143.94,0,0,0-6.84,14.88Zm-274.58-.2H463.61a141.88,141.88,0,0,1,6.82-14.83c11-20.67,31.71-52.28,43.68-54.63,19.06-3.76,51.37-3,68.46,0,4.27.75,9.82,5.23,16.06,12.94a152.62,152.62,0,0,1,15.87,24.72,182.52,182.52,0,0,1,12.56,30.86l30.15-3A31.1,31.1,0,0,0,666,221.27a58.2,58.2,0,0,0,4.16-14.51l-14.09-4.7v-81L630,13.91h.09s2.79-.79,3.3-2.17a1.39,1.39,0,0,0-.22-1.33c-1.52-2.32-26.63-5.21-52.68-5.21H426.37c-1.07,0-107.7.07-140,6.78-32.08,6.68-31.79,12.89-31.79,13h0L206,108.6h-.06c-.93,0-94,5.3-137.89,12-29.65,4.54-37.46,11-39.48,14.43a4,4,0,0,0-.66,3.2v.1h-.11c-.1,0-10.11,2.37-10.11,5.39v44.66a18.08,18.08,0,0,0,6,13l.21.18H10.11l-4,4.08,9.29,23.68,15.53,2.84c.33-1.16,3.94-13.8,9.29-27.28,5.16-13,13-29.46,21.29-34.07,15.87-8.84,71.83-4.92,84.42-2.88C155.43,169.51,179.3,216.11,189.16,236.13Z"/><path class="cls-3" d="M625.41,205.33,656.2,202l14.11,4.7s-5.72,2.65-22.45,4.18l-29,2.64-3.39-7.14Z"/><path class="cls-4" d="M584.19,157.5c-9.7-1.71-23.18-2.69-37-2.69-13.57,0-26,1-34.88,2.73-4.89,1-13,4.42-27.26,23.22a285.56,285.56,0,0,0-22.84,36.17,149.17,149.17,0,0,0-8.58,19.3h4.21a146.28,146.28,0,0,1,7.87-17.46,281.44,281.44,0,0,1,22.51-35.65c15-19.78,22.43-21.26,24.89-21.74,8.68-1.71,20.8-2.65,34.12-2.65a228.73,228.73,0,0,1,36.32,2.63c11.89,2.1,26.28,22.28,35.77,40.47.69,1.33,1.35,2.65,2,3.95l4.14-.45c-.84-1.74-1.72-3.52-2.66-5.31C617.94,190.79,600.92,160.46,584.19,157.5Z"/><path class="cls-3" d="M470.51,221.35c12-22.58,32.22-52.34,43.62-54.59,18.54-3.65,50.66-3.13,68.42,0,9.23,1.63,22.82,20.27,31.87,37.61l1,2,5.81-.62c-.64-1.3-1.3-2.62-2-3.95-9.49-18.19-23.88-38.37-35.77-40.47-9.49-1.67-22.72-2.63-36.32-2.63-13.32,0-25.44.94-34.12,2.65-2.46.48-9.92,2-24.89,21.74a281.44,281.44,0,0,0-22.51,35.65,146.86,146.86,0,0,0-7.78,17.49h5.87A141.59,141.59,0,0,1,470.51,221.35Z"/><path class="cls-4" d="M150.58,161.11c-7-1.11-26.48-2.74-45.92-2.74-22.7,0-40.66.42-48.62,4.74-8.42,4.55-13.58,18.52-22,39.25-5.89,14.41-9.66,27.51-9.82,28.06L24,231l4.61.85v-.79l.12-.41c1.53-5.5,15.45-54,32.05-63.27,7-3.93,21.31-5.92,42.38-5.92,18.68,0,37.3,1.61,44,2.69,2.75.45,9.19,1.49,31,41.68,6.22,11.45,12,22.91,15.59,30.36H202c-3.73-7.44-9.88-19.45-16.59-31.45C163.84,166.14,156.1,162,150.58,161.11Z"/><path class="cls-3" d="M61.52,170.94c15.93-8.88,72.08-4.86,84.36-2.87,9.43,1.52,32.85,47.09,43.21,68.16h4.66c-3.64-7.45-9.37-18.91-15.59-30.36-21.81-40.19-28.25-41.23-31-41.68-6.7-1.08-25.32-2.69-44-2.69-21.07,0-35.34,2-42.38,5.92-16.6,9.25-30.52,57.77-32,63.27l-.12.41v.79l2.35.43S45.59,179.82,61.52,170.94Z"/><path class="cls-3" d="M23.65,201.5H10.07L6,205.65s2,1.85,10.39,3.16a48.53,48.53,0,0,0,15.12,0L34,202.36Z"/><path class="cls-5" d="M189.09,236.23c3.14,6.37,5.08,10.5,5.08,10.5h0l2.38.21h4.71l-5.83-10.71Z"/><polygon class="cls-6" points="453.63 236.23 201.97 236.23 195.43 236.23 201.26 246.94 454.04 246.94 457.8 236.23 453.63 236.23"/><path class="cls-7" d="M457.84,236.23l-3.76,10.71h4.2l1.87-.13a103.5,103.5,0,0,1,3.56-10.58Z"/><rect class="cls-8" x="30.7" y="160.72" width="15.67" height="7.35"/><polygon class="cls-5" points="190.83 136.73 190.25 137.81 190.83 136.73 190.83 136.73"/><polygon class="cls-9" points="186.29 145.19 190.25 137.81 186.29 145.19 186.29 145.19"/><rect class="cls-10" x="625.41" y="186.87" width="20.08" height="8.65"/><polygon points="143.79 143.78 173.82 143.78 180.07 133.07 147.71 135.16 143.79 143.78"/><rect x="377.8" y="30.17" width="104.6" height="76.39" rx="8"/><rect class="cls-11" x="379.37" y="31.74" width="101.46" height="73.26" rx="6"/><path d="M345.67,106.56H237.16a6.29,6.29,0,0,1-6.27-6.27l31.34-63.85A13.21,13.21,0,0,1,274,30.17h71.69a6.29,6.29,0,0,1,6.27,6.27v63.85A6.29,6.29,0,0,1,345.67,106.56Z"/><path class="cls-12" d="M237.16,105a4.71,4.71,0,0,1-4.69-4.37L263.6,37.2A11.58,11.58,0,0,1,274,31.74h71.69a4.69,4.69,0,0,1,4.7,4.7h0v63.85a4.69,4.69,0,0,1-4.69,4.71H237.16Z"/><path d="M622.25,106.56H520.84a6.29,6.29,0,0,1-6.27-6.27L504.33,36.44a6,6,0,0,1,5.73-6.26h99.66A6.27,6.27,0,0,1,616,36.44l12.54,63.85A6.29,6.29,0,0,1,622.25,106.56Z"/><path class="cls-13" d="M520.84,105a4.72,4.72,0,0,1-4.7-4.71v-.12L505.9,36.32a4.43,4.43,0,0,1,4.24-4.58h99.58a4.71,4.71,0,0,1,4.7,4.7v.15L627,100.44a4.71,4.71,0,0,1-4.7,4.56Z"/><polygon class="cls-14" points="177.72 153.18 180.07 148.35 179.18 148.48 28.82 153.87 28.82 156.31 177.61 153.18 177.72 153.18"/><polygon class="cls-15" points="207.78 147.7 186.1 147.7 183.36 153.18 207.78 153.18 207.78 147.7"/><rect class="cls-16" x="215.35" y="147.7" width="104.99" height="5.48"/><rect class="cls-17" x="372.57" y="147.7" width="83.31" height="5.48"/><rect class="cls-18" x="502.11" y="145.74" width="144.82" height="5.09"/><rect x="326.61" y="147.7" width="31.6" height="5.48"/><rect x="461.89" y="147.7" width="30.82" height="5.48"/><path class="cls-19" d="M353.7,150.34a1.67,1.67,0,1,1-1.68-1.66h0a1.66,1.66,0,0,1,1.66,1.66Z"/><path class="cls-19" d="M489.15,150.34a1.67,1.67,0,1,1-1.68-1.66h0a1.66,1.66,0,0,1,1.66,1.66Z"/><rect x="225.99" y="106.56" width="6.48" height="17.3"/><path class="cls-20" d="M645.49,77.12l10.71,43.94v63.07h24.42s9-1.59,9-53.5-9-53.51-9-53.51Z"/><polygon points="625.43 205.53 625.38 205.14 656.18 201.82 656.22 202.22 625.43 205.53"/><polygon points="33.98 202.55 23.45 201.68 23.45 139.53 23.85 139.53 23.85 201.32 34.01 202.16 33.98 202.55"/><rect x="148.17" y="142.92" width="78.5" height="0.39" transform="translate(-27.33 240.54) rotate(-61.77)"/><path d="M27.84,138.48l-.1-.38c.22-.06,22.91-6,60.36-9.92s110.55-7.67,111.29-7.71v.39c-.74,0-73.84,3.83-111.27,7.7S28.1,138.42,27.84,138.48Z"/><polygon class="cls-21" points="217.77 223.86 212.54 184.29 212.54 108.47 212.57 108.42 260.16 23.71 360.76 23.71 360.76 222.41 360.36 222.41 360.36 24.1 260.39 24.1 212.93 108.57 212.93 184.26 218.16 223.81 217.77 223.86"/><polygon class="cls-21" points="370.15 222.31 369.76 222.31 369.76 23.71 488.71 23.71 488.73 23.88 497.61 120.65 497.61 150.5 497.58 150.54 453.8 221.58 453.46 221.38 497.22 150.38 497.22 120.67 488.35 24.1 370.15 24.1 370.15 222.31"/><polygon points="254.56 25.14 254.49 24.75 260.24 23.71 488.53 23.71 617.5 21.09 629.99 13.81 630.19 14.15 617.61 21.48 617.56 21.49 488.54 24.1 260.27 24.1 254.56 25.14"/><polygon points="656.2 136.92 646.74 136.92 646.74 120.67 623.82 17.56 624.21 17.48 647.12 120.62 647.13 136.53 656.2 136.53 656.2 136.92"/><path class="cls-22" d="M235.39,112.63s4.71-4.3,4.71-9.2V88.58c0-2.78-6.56-4-10.87-4s-10.49,2-10.49,10.78c0,3.3,1.39,11.13,4.31,13.9C227.93,113.92,235.39,112.63,235.39,112.63Z"/><rect class="cls-23" x="221.68" y="97.16" width="14.49" height="3.93"/><path class="cls-24" d="M137.25,238.58a29,29,0,1,1-29-29h0A29,29,0,0,1,137.25,238.58Z"/><path d="M142.7,204.17A48.68,48.68,0,1,0,157,238.58,48.68,48.68,0,0,0,142.7,204.17Zm-2.16,66.67a45.63,45.63,0,1,1,13.36-32.26A45.6,45.6,0,0,1,140.54,270.84Z"/><path class="cls-25" d="M108.28,175.51a63.08,63.08,0,1,0,63.08,63.08h0a63.07,63.07,0,0,0-63.07-63.07Zm0,111a47.91,47.91,0,1,1,47.91-47.91,47.91,47.91,0,0,1-47.91,47.91Z"/><rect class="cls-26" x="107.61" y="175.51" width="1.35" height="6.46"/><rect class="cls-26" x="107.61" y="295.19" width="1.35" height="6.46"/><rect class="cls-26" x="45.22" y="237.91" width="6.46" height="1.35"/><rect class="cls-26" x="164.9" y="237.91" width="6.46" height="1.35"/><rect class="cls-26" x="92.11" y="177.56" width="1.35" height="6.46" transform="translate(-43.58 30.13) rotate(-14.98)"/><rect class="cls-26" x="123.09" y="293.16" width="1.35" height="6.46" transform="translate(-72.45 42.1) rotate(-14.99)"/><rect class="cls-26" x="47.24" y="253.4" width="6.46" height="1.35" transform="translate(-64.08 21.74) rotate(-15.01)"/><rect class="cls-26" x="162.88" y="222.4" width="6.46" height="1.35" transform="translate(-52.14 50.67) rotate(-15.02)"/><rect class="cls-26" x="77.7" y="183.53" width="1.35" height="6.46" transform="translate(-82.84 64.15) rotate(-29.98)"/><rect class="cls-26" x="137.54" y="287.18" width="1.35" height="6.46" transform="translate(-126.69 108.01) rotate(-30)"/><rect class="cls-26" x="53.22" y="267.83" width="6.46" height="1.35" transform="translate(-126.65 64.17) rotate(-29.99)"/><polygon class="cls-26" points="163.25 207.63 157.65 210.86 156.97 209.69 162.57 206.46 163.25 207.63"/><rect class="cls-26" x="65.3" y="193.03" width="1.35" height="6.46" transform="translate(-119.47 104.17) rotate(-45.01)"/><rect class="cls-26" x="149.92" y="277.69" width="1.35" height="6.46" transform="translate(-154.55 188.82) rotate(-45.01)"/><rect class="cls-26" x="62.74" y="280.22" width="6.46" height="1.35" transform="translate(-179.3 128.92) rotate(-45)"/><rect class="cls-26" x="147.37" y="195.61" width="6.46" height="1.35" transform="translate(-94.68 163.94) rotate(-44.99)"/><rect class="cls-26" x="55.79" y="205.44" width="1.35" height="6.46" transform="translate(-152.48 153.2) rotate(-59.99)"/><polygon class="cls-26" points="162.57 270.71 156.97 267.47 157.65 266.3 163.25 269.54 162.57 270.71"/><rect class="cls-26" x="75.14" y="289.73" width="6.46" height="1.35" transform="translate(-212.3 213.02) rotate(-59.99)"/><rect class="cls-26" x="134.97" y="186.08" width="6.46" height="1.35" transform="translate(-92.62 213.1) rotate(-60.01)"/><rect class="cls-26" x="49.81" y="219.87" width="1.35" height="6.46" transform="translate(-178.08 214.13) rotate(-75)"/><rect class="cls-26" x="165.42" y="250.86" width="1.35" height="6.46" transform="translate(-122.36 348.66) rotate(-74.98)"/><rect class="cls-26" x="89.57" y="295.72" width="6.46" height="1.35" transform="translate(-217.52 309.27) rotate(-74.99)"/><rect class="cls-26" x="120.54" y="180.1" width="6.46" height="1.35" transform="translate(-82.89 253.51) rotate(-74.99)"/><rect class="cls-26" x="99.81" y="176.02" width="1.35" height="6.46" transform="translate(-22.54 14.65) rotate(-7.5)"/><rect class="cls-26" x="115.4" y="294.69" width="1.35" height="6.46" transform="translate(-37.89 17.7) rotate(-7.5)"/><rect class="cls-26" x="45.75" y="245.71" width="6.46" height="1.35" transform="translate(-31.7 8.49) rotate(-7.49)"/><rect class="cls-26" x="164.4" y="230.08" width="6.46" height="1.35" transform="matrix(0.99, -0.13, 0.13, 0.99, -28.69, 23.85)"/><rect class="cls-26" x="84.71" y="180.07" width="1.35" height="6.46" transform="translate(-63.65 46.63) rotate(-22.5)"/><rect class="cls-26" x="130.5" y="290.65" width="1.35" height="6.46" transform="translate(-102.48 72.57) rotate(-22.5)"/><rect class="cls-26" x="49.76" y="260.81" width="6.46" height="1.35" transform="translate(-96.03 40.18) rotate(-22.5)"/><rect class="cls-26" x="160.34" y="215.02" width="6.46" height="1.35" transform="translate(-70.07 78.97) rotate(-22.49)"/><rect class="cls-26" x="71.18" y="187.89" width="1.35" height="6.46" transform="matrix(0.79, -0.61, 0.61, 0.79, -101.5, 83.24)"/><rect class="cls-26" x="144.04" y="282.84" width="1.35" height="6.46" transform="matrix(0.79, -0.61, 0.61, 0.79, -144.24, 147.21)"/><rect class="cls-26" x="57.58" y="274.33" width="6.46" height="1.35" transform="translate(-154.81 93.81) rotate(-37.49)"/><rect class="cls-26" x="152.53" y="201.49" width="6.46" height="1.35" transform="translate(-90.87 136.55) rotate(-37.49)"/><rect class="cls-26" x="60.14" y="198.93" width="1.35" height="6.46" transform="translate(-136.6 127.37) rotate(-52.51)"/><rect class="cls-26" x="155.08" y="271.76" width="1.35" height="6.46" transform="translate(-157.24 231.21) rotate(-52.51)"/><rect class="cls-26" x="68.63" y="285.39" width="6.46" height="1.35" transform="translate(-198.85 168.98) rotate(-52.51)"/><rect class="cls-26" x="141.49" y="190.44" width="6.46" height="1.35" transform="translate(-95 189.63) rotate(-52.51)"/><rect class="cls-26" x="52.32" y="212.46" width="1.35" height="6.46" transform="translate(-166.55 182.07) rotate(-67.49)"/><rect class="cls-26" x="162.9" y="258.28" width="1.35" height="6.46" transform="translate(-140.62 312.61) rotate(-67.51)"/><polygon class="cls-26" points="87.25 291.14 84.77 297.11 83.52 296.59 86 290.62 87.25 291.14"/><rect class="cls-26" x="127.96" y="182.63" width="6.46" height="1.35" transform="translate(-88.36 234.36) rotate(-67.5)"/><rect class="cls-26" x="48.29" y="227.56" width="1.35" height="6.46" transform="translate(-186.25 249.17) rotate(-82.49)"/><rect class="cls-26" x="166.95" y="243.18" width="1.35" height="6.46" transform="translate(-98.55 380.43) rotate(-82.5)"/><rect class="cls-26" x="96.77" y="297.17" width="6.45" height="1.35" transform="translate(-208.34 358.21) rotate(-82.52)"/><rect class="cls-26" x="112.87" y="178.59" width="6.46" height="1.35" transform="translate(-76.77 271.01) rotate(-82.51)"/><path class="cls-27" d="M140.43,206.43a45.46,45.46,0,1,0,13.32,32.15A45.46,45.46,0,0,0,140.43,206.43Zm-3.22,61.08a40.91,40.91,0,1,1,12-28.93A40.9,40.9,0,0,1,137.21,267.51Z"/><path class="cls-28" d="M142,204.89a47.67,47.67,0,1,0,14,33.69A47.66,47.66,0,0,0,142,204.89Zm-1.55,65.84a45.46,45.46,0,1,1,13.32-32.15,45.46,45.46,0,0,1-13.32,32.15Z"/><polygon class="cls-29" points="74.75 275.29 76.52 274.1 77.08 271.64 90.07 248.79 90.34 248.42 87.98 241.17 87.55 241.03 63.59 230.17 61.7 228.52 59.58 228.59 63.01 218.03 64.67 219.34 67.18 219.11 92.95 224.41 93.56 224.61 99.55 220.26 99.55 219.61 102.47 193.49 103.46 191.18 102.73 189.17 113.84 189.17 113.11 191.18 114.1 193.49 117.02 219.61 117.02 220.26 123.01 224.61 123.62 224.41 149.4 219.11 151.9 219.34 153.56 218.03 156.99 228.59 154.87 228.52 152.98 230.17 129.02 241.03 128.59 241.17 126.23 248.42 126.5 248.79 139.49 271.64 140.05 274.1 141.82 275.29 132.84 281.82 132.25 279.77 130.1 278.49 112.37 259.06 112.16 258.78 104.41 258.78 104.2 259.06 86.47 278.49 84.32 279.77 83.73 281.82 74.75 275.29"/><path class="cls-30" d="M143.52,203.35a49.83,49.83,0,1,0,14.6,35.23A49.81,49.81,0,0,0,143.52,203.35Zm8.38,16h0l-28.06,5.77-.93.3-6.59-4.79v-1l-3.18-28.47a47.57,47.57,0,0,1,38.76,28.18ZM74.59,204.89a47.3,47.3,0,0,1,28.87-13.71l-3.18,28.47v1l-6.59,4.79-.93-.3-28.07-5.77h0A47.81,47.81,0,0,1,74.59,204.89Zm-14,33.69a48.62,48.62,0,0,1,1.06-10.06h0l26.19,11.83.75.24,2.59,8-.47.64-14.16,24.9c-.65-.58-1.3-1.19-1.93-1.82a47.34,47.34,0,0,1-14-33.73Zm23.67,41.2h0l19.38-21.18.39-.54h8.5l.4.54,19.32,21.17h0a47.76,47.76,0,0,1-47.94,0Zm57.67-7.51c-.63.63-1.28,1.24-1.93,1.82l-14.16-24.9-.47-.64,2.59-8,.75-.24,26.13-11.79h0A47.84,47.84,0,0,1,142,272.27Z"/><path d="M108.28,288.44a49.86,49.86,0,1,1,35.26-14.61A49.86,49.86,0,0,1,108.28,288.44Zm0-99.67a49.81,49.81,0,1,0,35.22,14.59A49.81,49.81,0,0,0,108.28,188.77Zm0,97.48a47.57,47.57,0,0,1-12.5-1.65,47,47,0,0,1-11.48-4.8h0l19.32-21.17.4-.56h8.53l.4.55,19.31,21.16h0a46.77,46.77,0,0,1-24,6.47Zm-23.93-6.48a47.68,47.68,0,0,0,47.87,0l-19.31-21.15-.39-.54h-8.47l-.39.53ZM140,274.13h0l-14.2-24.93-.47-.65h0l2.59-8,.76-.24,26.12-11.81h0a47.74,47.74,0,0,1-12.94,43.78c-.6.6-1.25,1.21-1.93,1.82Zm-14.59-25.59.46.63,14.14,24.89c.67-.6,1.31-1.21,1.91-1.8a47.36,47.36,0,0,0,13.95-33.68,48,48,0,0,0-1.06-10L128.77,240.4l-.74.24ZM76.53,274.13h0c-.68-.61-1.33-1.22-1.93-1.82a47.38,47.38,0,0,1-14-33.71,48.71,48.71,0,0,1,1.06-10.07h0l26.18,11.8.76.24h0l2.59,8-.47.65ZM61.72,228.55a48.73,48.73,0,0,0-1.06,10,47.34,47.34,0,0,0,14,33.68c.6.59,1.24,1.2,1.91,1.8l14.14-24.88.46-.64-2.58-7.93-.74-.24Zm61.12-3.11-6.61-4.8v-1L113,191.14h0a47.78,47.78,0,0,1,38.81,28.18h0l-28,5.82Zm-6.56-4.82,6.57,4.77.91-.29,28.08-5.78A47.8,47.8,0,0,0,113.1,191.2l3.19,28.45Zm-22.63,4.82h0l-.93-.3-28.07-5.77h0a47.51,47.51,0,0,1,9.93-14.46h0a47.42,47.42,0,0,1,28.88-13.72h0l-3.18,28.48v1Zm-29-6.12,28.06,5.77.92.3,6.57-4.77v-1l3.24-28.42a47.06,47.06,0,0,0-28.83,13.71,47.71,47.71,0,0,0-9.91,14.41Z"/><polygon class="cls-31" points="116.76 240.52 154.36 226.2 153.6 223.86 152.84 221.52 114.43 231.92 114 232.03 112.74 231.12 110.75 190.94 108.28 190.94 105.82 190.94 103.83 231.12 102.57 232.03 101.88 231.85 63.73 221.52 62.97 223.86 62.21 226.2 99.81 240.52 100.29 242 78.29 275.68 80.28 277.13 82.27 278.58 107.51 247.24 109.06 247.24 134.3 278.58 136.29 277.13 138.28 275.68 116.28 242 116.76 240.52"/><path class="cls-26" d="M111,227.75a2.7,2.7,0,1,1-2.7-2.7h0a2.68,2.68,0,0,1,2.7,2.68Z"/><path class="cls-26" d="M112.47,248.93a2.7,2.7,0,1,1,3.77.6h0A2.7,2.7,0,0,1,112.47,248.93Z"/><path class="cls-26" d="M99.74,245.75a2.7,2.7,0,1,1,.59,3.78,2.71,2.71,0,0,1-.59-3.78Z"/><path class="cls-26" d="M98.84,232.67a2.7,2.7,0,1,1-3.4,1.73h0a2.7,2.7,0,0,1,3.39-1.73Z"/><path class="cls-26" d="M119.42,237.8a2.7,2.7,0,1,1,1.73-3.4h0a2.69,2.69,0,0,1-1.71,3.4Z"/><circle class="cls-32" cx="108.28" cy="238.58" r="7.46"/><circle class="cls-4" cx="108.28" cy="238.58" r="7.1"/><path class="cls-33" d="M108.28,229.91a1.79,1.79,0,1,1,1.79-1.79h0A1.79,1.79,0,0,1,108.28,229.91Z"/><path class="cls-34" d="M113.38,245.6a1.79,1.79,0,1,1-.39,2.5h0A1.8,1.8,0,0,1,113.38,245.6Z"/><path class="cls-35" d="M103.19,245.6a1.79,1.79,0,1,1-2.42.38A1.8,1.8,0,0,1,103.19,245.6Z"/><path class="cls-36" d="M100,235.9a1.79,1.79,0,1,1-1.15-2.25h0A1.78,1.78,0,0,1,100,235.9Z"/><path class="cls-37" d="M116.53,235.9a1.79,1.79,0,1,1,2.26,1.15,1.77,1.77,0,0,1-2.25-1.14Z"/><path class="cls-26" d="M102.6,229.26a.87.87,0,0,1-.2,1.23.88.88,0,0,1-1-1.43.88.88,0,0,1,1.23.2Z"/><path class="cls-26" d="M107.41,249.47a.88.88,0,1,1,.88.88h0A.89.89,0,0,1,107.41,249.47Z"/><path class="cls-26" d="M118.37,242.78a.88.88,0,0,1,.42-1.71l.12,0a.88.88,0,0,1-.41,1.71Z"/><path class="cls-26" d="M115.4,230.29a.88.88,0,1,1-.2-1.23.88.88,0,0,1,.2,1.23Z"/><path class="cls-26" d="M97.66,241.11a.88.88,0,0,1,.54,1.68.88.88,0,1,1-.54-1.68Z"/><path class="cls-38" d="M574.44,238.58a29,29,0,1,1-29-29h0A29,29,0,0,1,574.44,238.58Z"/><path d="M579.84,204.17a48.67,48.67,0,1,0,14.26,34.41A48.65,48.65,0,0,0,579.84,204.17Zm-2.16,66.67A45.63,45.63,0,1,1,591,238.58a45.6,45.6,0,0,1-13.36,32.26Z"/><path class="cls-39" d="M545.47,175.51a63.08,63.08,0,1,0,63.07,63.09v0A63.07,63.07,0,0,0,545.47,175.51Zm0,111a47.91,47.91,0,1,1,47.9-47.92h0a48,48,0,0,1-47.9,47.89Z"/><rect class="cls-26" x="544.79" y="175.51" width="1.35" height="6.46"/><rect class="cls-26" x="544.79" y="295.19" width="1.35" height="6.46"/><rect class="cls-26" x="482.4" y="237.91" width="6.46" height="1.35"/><rect class="cls-26" x="602.08" y="237.91" width="6.46" height="1.35"/><rect class="cls-26" x="531.66" y="177.48" width="1.36" height="6.49" transform="translate(-28.64 143.99) rotate(-15)"/><rect class="cls-26" x="560.27" y="293.19" width="1.35" height="6.46" transform="translate(-57.58 155.18) rotate(-14.99)"/><rect class="cls-26" x="484.43" y="253.43" width="6.46" height="1.35" transform="matrix(0.97, -0.26, 0.26, 0.97, -49.17, 134.97)"/><rect class="cls-26" x="600.05" y="222.37" width="6.46" height="1.35" transform="translate(-37.19 163.96) rotate(-15.02)"/><rect class="cls-26" x="514.87" y="183.53" width="1.35" height="6.46" transform="translate(-24.34 282.61) rotate(-29.98)"/><rect class="cls-26" x="574.71" y="287.17" width="1.35" height="6.46" transform="translate(-68.11 326.6) rotate(-30)"/><rect class="cls-26" x="490.42" y="267.84" width="6.46" height="1.35" transform="translate(-68.12 282.7) rotate(-29.99)"/><polygon class="cls-26" points="600.43 207.63 594.83 210.86 594.16 209.69 599.75 206.46 600.43 207.63"/><rect class="cls-26" x="502.47" y="193.01" width="1.35" height="6.46" transform="translate(8.65 413.34) rotate(-45.01)"/><rect class="cls-26" x="587.13" y="277.71" width="1.35" height="6.46" transform="translate(-26.45 498.03) rotate(-45.01)"/><rect class="cls-26" x="499.94" y="280.22" width="6.46" height="1.35" transform="translate(-51.25 438.07) rotate(-45)"/><rect class="cls-26" x="584.57" y="195.63" width="6.46" height="1.35" transform="translate(33.3 473.04) rotate(-44.99)"/><rect class="cls-26" x="492.99" y="205.46" width="1.35" height="6.46" transform="translate(66.04 531.8) rotate(-59.99)"/><polygon class="cls-26" points="599.75 270.71 594.16 267.47 594.83 266.3 600.43 269.54 599.75 270.71"/><rect class="cls-26" x="512.33" y="289.73" width="6.46" height="1.35" transform="translate(6.23 591.6) rotate(-59.99)"/><rect class="cls-26" x="572.14" y="186.06" width="6.46" height="1.35" transform="translate(126.04 591.73) rotate(-60.01)"/><rect class="cls-26" x="487.01" y="219.89" width="1.35" height="6.46" transform="translate(145.95 636.44) rotate(-75)"/><rect class="cls-26" x="602.63" y="250.85" width="1.35" height="6.46" transform="translate(201.55 770.93) rotate(-74.98)"/><rect class="cls-26" x="526.78" y="295.74" width="6.46" height="1.35" transform="translate(106.44 731.58) rotate(-74.99)"/><rect class="cls-26" x="557.73" y="180.1" width="6.46" height="1.35" transform="translate(241.07 675.78) rotate(-74.99)"/><rect class="cls-26" x="536.99" y="175.99" width="1.35" height="6.46" transform="matrix(0.99, -0.13, 0.13, 0.99, -18.79, 71.71)"/><rect class="cls-26" x="551.65" y="294.59" width="1.35" height="6.45" transform="translate(-34.07 74.44) rotate(-7.48)"/><rect class="cls-26" x="482.15" y="245.5" width="6.45" height="1.35" transform="translate(-27.92 65.29) rotate(-7.48)"/><rect class="cls-26" x="601.58" y="230.06" width="6.46" height="1.35" transform="matrix(0.99, -0.13, 0.13, 0.99, -24.94, 80.92)"/><rect class="cls-26" x="521.89" y="180.08" width="1.35" height="6.46" transform="translate(-30.37 213.93) rotate(-22.5)"/><rect class="cls-26" x="567.69" y="290.67" width="1.35" height="6.46" transform="translate(-69.21 239.88) rotate(-22.5)"/><rect class="cls-26" x="486.94" y="260.84" width="6.46" height="1.35" transform="translate(-62.76 207.49) rotate(-22.5)"/><rect class="cls-26" x="597.54" y="215.05" width="6.46" height="1.35" transform="translate(-36.83 246.21) rotate(-22.49)"/><rect class="cls-26" x="508.38" y="187.91" width="1.35" height="6.46" transform="matrix(0.79, -0.61, 0.61, 0.79, -11.16, 349.39)"/><rect class="cls-26" x="581.23" y="282.85" width="1.35" height="6.46" transform="matrix(0.79, -0.61, 0.61, 0.79, -53.91, 413.36)"/><rect class="cls-26" x="494.76" y="274.31" width="6.46" height="1.35" transform="translate(-64.51 359.89) rotate(-37.49)"/><rect class="cls-26" x="589.74" y="201.52" width="6.46" height="1.35" transform="translate(-0.59 402.66) rotate(-37.49)"/><rect class="cls-26" x="497.34" y="198.95" width="1.35" height="6.46" transform="translate(34.48 474.28) rotate(-52.51)"/><rect class="cls-26" x="592.26" y="271.74" width="1.35" height="6.46" transform="translate(13.88 578.08) rotate(-52.51)"/><rect class="cls-26" x="505.83" y="285.4" width="6.46" height="1.35" transform="translate(-27.76 515.88) rotate(-52.51)"/><rect class="cls-26" x="578.67" y="190.43" width="6.46" height="1.35" transform="translate(76.11 536.51) rotate(-52.51)"/><rect class="cls-26" x="489.52" y="212.46" width="1.35" height="6.46" transform="translate(103.26 585.96) rotate(-67.49)"/><rect class="cls-26" x="600.11" y="258.28" width="1.35" height="6.46" transform="matrix(0.38, -0.92, 0.92, 0.38, 129.35, 716.57)"/><polygon class="cls-26" points="524.43 291.14 521.96 297.11 520.71 296.59 523.18 290.62 524.43 291.14"/><rect class="cls-26" x="565.16" y="182.63" width="6.46" height="1.35" transform="translate(181.53 638.28) rotate(-67.5)"/><rect class="cls-26" x="485.5" y="227.56" width="1.35" height="6.46" transform="translate(193.82 682.63) rotate(-82.49)"/><rect class="cls-26" x="604.15" y="243.19" width="1.35" height="6.46" transform="translate(281.57 813.91) rotate(-82.5)"/><rect class="cls-26" x="534.44" y="297.25" width="6.46" height="1.35" transform="translate(172.03 792.05) rotate(-82.49)"/><rect class="cls-26" x="550.08" y="178.59" width="6.46" height="1.35" transform="translate(303.45 704.49) rotate(-82.51)"/><path class="cls-40" d="M577.62,206.43a45.48,45.48,0,1,0,13.31,32.15A45.46,45.46,0,0,0,577.62,206.43Zm-3.22,61.08a40.92,40.92,0,1,1,12-28.93,40.92,40.92,0,0,1-12,28.93Z"/><path class="cls-28" d="M579.16,204.89a47.63,47.63,0,1,0,14,33.69A47.63,47.63,0,0,0,579.16,204.89Zm-1.54,65.84a45.48,45.48,0,1,1,13.31-32.15,45.46,45.46,0,0,1-13.31,32.15Z"/><polygon class="cls-41" points="511.94 275.29 513.71 274.1 514.26 271.64 527.25 248.79 527.52 248.42 525.17 241.17 524.73 241.03 500.78 230.17 498.89 228.52 496.76 228.59 500.19 218.03 501.85 219.34 504.36 219.11 530.13 224.41 530.74 224.61 536.73 220.26 536.73 219.61 539.66 193.49 540.65 191.18 539.92 189.17 551.02 189.17 550.29 191.18 551.28 193.49 554.21 219.61 554.21 220.26 560.2 224.61 560.81 224.41 586.58 219.11 589.09 219.34 590.75 218.03 594.18 228.59 592.05 228.52 590.16 230.17 566.21 241.03 565.77 241.17 563.42 248.42 563.69 248.79 576.68 271.64 577.23 274.1 579 275.29 570.02 281.82 569.43 279.77 567.28 278.49 549.55 259.06 549.35 258.78 541.59 258.78 541.39 259.06 523.66 278.49 521.51 279.77 520.92 281.82 511.94 275.29"/><path class="cls-42" d="M580.71,203.35a49.84,49.84,0,1,0,14.59,35.23A49.84,49.84,0,0,0,580.71,203.35Zm8.38,16h0L561,225.12l-.93.3-6.59-4.79v-1l-3.19-28.47a47.79,47.79,0,0,1,38.8,28.16ZM511.78,204.9a47.25,47.25,0,0,1,28.87-13.71l-3.19,28.47v1l-6.62,4.76-.93-.3-28.07-5.77h0a47.66,47.66,0,0,1,9.94-14.46Zm-14,33.69a48.63,48.63,0,0,1,1.07-10.06h0L525,240.36l.76.24,2.58,8-.46.64-14.16,24.9c-.66-.58-1.3-1.19-1.93-1.82a47.38,47.38,0,0,1-13.9-33.74Zm23.68,41.2h0l19.38-21.19.4-.54h8.5l.4.54,19.31,21.17h0a47.76,47.76,0,0,1-47.94,0Zm57.66-7.51c-.63.63-1.27,1.24-1.93,1.82L563,249.2l-.46-.64,2.58-8,.76-.24L592,228.49h0a48,48,0,0,1,1.07,10.06,47.29,47.29,0,0,1-13.92,33.72Z"/><path d="M545.47,288.44a49.86,49.86,0,1,1,35.25-14.61A49.86,49.86,0,0,1,545.47,288.44Zm0-99.67a49.81,49.81,0,1,0,35.22,14.59A49.81,49.81,0,0,0,545.47,188.77Zm0,97.48A47.57,47.57,0,0,1,533,284.6a47,47,0,0,1-11.48-4.8h0l19.35-21.21.4-.56h8.53l.4.55,19.31,21.16h0a46.67,46.67,0,0,1-11.48,4.8A47.75,47.75,0,0,1,545.47,286.25Zm-23.94-6.48a47.7,47.7,0,0,0,47.88,0L550.1,258.62l-.39-.54h-8.48l-.39.53Zm55.7-5.64h0L563.05,249.2l-.47-.65h0l2.59-8,.76-.24L592,228.48h0a48,48,0,0,1,1.06,10.07,47.31,47.31,0,0,1-14,33.71c-.6.6-1.25,1.21-1.93,1.82Zm-14.6-25.59.46.63,14.15,24.89c.67-.6,1.31-1.21,1.91-1.8a47.3,47.3,0,0,0,13.94-33.68,48,48,0,0,0-1-10L566,240.4l-.74.24Zm-48.92,25.59h0c-.68-.61-1.33-1.22-1.93-1.82a47.4,47.4,0,0,1-14-33.71,48.9,48.9,0,0,1,1.06-10.09h0l26.1,11.83.76.24h0l2.59,8-.48.65ZM498.9,228.55a48.72,48.72,0,0,0-1,10,47.4,47.4,0,0,0,14,33.71c.6.59,1.24,1.2,1.91,1.8l14.09-24.88.46-.64-2.58-7.93-.74-.24Zm61.16-3.11-6.61-4.8v-1l-3.18-28.5h0a47.8,47.8,0,0,1,38.82,28.18h0L561,225.09Zm-6.56-4.82,6.57,4.77.92-.29,28.06-5.78a47.75,47.75,0,0,0-38.73-28.12l3.18,28.45Zm-22.66,4.82h0l-.92-.3-28.08-5.77h0a47.93,47.93,0,0,1,9.93-14.46h0a47.42,47.42,0,0,1,28.88-13.72h0l-3.19,28.48v1Zm-29-6.12,28.06,5.77.92.3,6.57-4.77v-1l3.18-28.45a47.78,47.78,0,0,0-38.73,28.12Z"/><polygon class="cls-43" points="553.94 240.52 591.55 226.2 590.78 223.86 590.02 221.52 551.62 231.92 551.19 232.03 549.93 231.12 547.93 190.94 545.47 190.94 543.01 190.94 541.01 231.12 539.75 232.03 539.07 231.85 500.92 221.52 500.15 223.86 499.4 226.2 537 240.52 537.48 242 515.47 275.68 517.46 277.13 519.46 278.58 544.69 247.24 546.25 247.24 571.48 278.58 573.48 277.13 575.47 275.68 553.46 242 553.94 240.52"/><path class="cls-26" d="M548.17,227.75a2.7,2.7,0,1,1-2.7-2.7,2.7,2.7,0,0,1,2.7,2.7Z"/><path class="cls-26" d="M549.65,248.93a2.7,2.7,0,1,1,3.77.6h0a2.7,2.7,0,0,1-3.76-.58Z"/><path class="cls-26" d="M536.92,245.75a2.7,2.7,0,1,1,.6,3.78,2.71,2.71,0,0,1-.6-3.78Z"/><path class="cls-26" d="M536,232.67a2.7,2.7,0,1,1-3.41,1.73,2.71,2.71,0,0,1,3.41-1.73Z"/><path class="cls-26" d="M556.6,237.8a2.7,2.7,0,1,1,1.74-3.4,2.68,2.68,0,0,1-1.74,3.4Z"/><circle class="cls-32" cx="545.47" cy="238.58" r="7.46"/><circle class="cls-4" cx="545.47" cy="238.58" r="7.1"/><path class="cls-44" d="M545.47,229.91a1.79,1.79,0,1,1,1.79-1.79h0A1.79,1.79,0,0,1,545.47,229.91Z"/><path class="cls-45" d="M550.57,245.6a1.79,1.79,0,1,1-.4,2.5,1.79,1.79,0,0,1,.4-2.5Z"/><path class="cls-46" d="M540.37,245.6a1.79,1.79,0,1,1-2.5.4,1.79,1.79,0,0,1,2.5-.4Z"/><path class="cls-47" d="M537.22,235.9a1.79,1.79,0,1,1-1.15-2.25h0a1.78,1.78,0,0,1,1.16,2.24Z"/><path class="cls-48" d="M553.72,235.9a1.79,1.79,0,1,1,2.26,1.15h0a1.77,1.77,0,0,1-2.24-1.14Z"/><path class="cls-26" d="M539.78,229.26a.87.87,0,0,1-.18,1.22h0a.88.88,0,1,1-1.05-1.41.89.89,0,0,1,1.24.18Z"/><path class="cls-26" d="M544.59,249.47a.88.88,0,1,1,.88.88.88.88,0,0,1-.88-.88Z"/><path class="cls-26" d="M555.55,242.78a.88.88,0,0,1,.55-1.67.88.88,0,0,1,.61,1.08.87.87,0,0,1-1.08.61Z"/><path class="cls-26" d="M552.58,230.29a.88.88,0,0,1-1.23.19h0a.88.88,0,0,1-.19-1.22h0a.88.88,0,1,1,1.59.77.91.91,0,0,1-.17.23Z"/><path class="cls-26" d="M534.84,241.11a.89.89,0,0,1,1.12.56.88.88,0,0,1-.56,1.11.89.89,0,0,1-1.12-.56h0A.88.88,0,0,1,534.84,241.11Z"/></g></g></svg>